<svg width="72" height="74" xmlns="http://www.w3.org/2000/svg" xmlns:xlink="http://www.w3.org/1999/xlink" overflow="hidden"><defs><clipPath id="clip0"><rect x="576" y="200" width="72" height="74"/></clipPath><clipPath id="clip1"><rect x="576" y="201" width="72" height="73"/></clipPath><clipPath id="clip2"><rect x="576" y="201" width="72" height="73"/></clipPath><clipPath id="clip3"><rect x="576" y="201" width="72" height="73"/></clipPath></defs><g clip-path="url(#clip0)" transform="translate(-576 -200)"><g clip-path="url(#clip1)"><g clip-path="url(#clip2)"><g clip-path="url(#clip3)"><path d="M36.0037 18.75C26.4769 18.75 18.7537 26.4731 18.7537 36 18.7537 45.5269 26.4769 53.25 36.0037 53.25 45.5307 53.25 53.2537 45.5269 53.2537 36 53.243 26.4775 45.5262 18.7607 36.0037 18.75ZM33.5513 43.023 26.034 35.505 28.5885 32.9505 33.5513 37.9132 43.7152 27.75 46.2698 30.3045Z" fill="#333F50" fill-rule="nonzero" fill-opacity="1" transform="matrix(1 0 0 1.01389 576 201)"/><path d="M61.5938 36.9487C61.1429 36.3966 61.1429 35.6034 61.5938 35.0513L63.4417 32.787C63.9659 32.1455 63.8708 31.2005 63.2293 30.6763 63.1855 30.6406 63.1397 30.6073 63.0923 30.5768L60.6345 28.9943C60.0354 28.6086 59.7903 27.8547 60.048 27.1905L61.1062 24.465C61.4062 23.6928 61.0234 22.8236 60.2512 22.5236 60.1987 22.5033 60.1452 22.4858 60.0908 22.4715L57.264 21.726C56.575 21.5443 56.1088 20.903 56.1488 20.1915L56.313 17.2725C56.3594 16.4454 55.7266 15.7372 54.8995 15.6908 54.8435 15.6876 54.7873 15.6876 54.7312 15.6908L51.8122 15.855C51.1008 15.8949 50.4594 15.4288 50.2778 14.7397L49.5322 11.913C49.3209 11.112 48.5002 10.634 47.6992 10.8454 47.6448 10.8597 47.5912 10.8771 47.5387 10.8975L44.8132 11.9557C44.149 12.2134 43.3951 11.9683 43.0095 11.3693L41.427 8.9115C40.9785 8.21498 40.0503 8.0139 39.3538 8.4624 39.3062 8.493 39.2605 8.52623 39.2168 8.562L36.9525 10.41C36.4003 10.8609 35.6072 10.8609 35.055 10.41L32.7907 8.562C32.1492 8.03782 31.2043 8.133 30.6801 8.77448 30.6443 8.81828 30.6111 8.86403 30.5805 8.9115L28.998 11.3693C28.6124 11.9683 27.8584 12.2134 27.1942 11.9557L24.4688 10.8975C23.6966 10.5975 22.8274 10.9804 22.5274 11.7526 22.507 11.805 22.4896 11.8586 22.4753 11.913L21.7297 14.7397C21.5481 15.4288 20.9067 15.8949 20.1952 15.855L17.2762 15.6908C16.4492 15.6443 15.7409 16.2772 15.6945 17.1043 15.6914 17.1603 15.6914 17.2165 15.6945 17.2725L15.8588 20.1915C15.8987 20.903 15.4325 21.5443 14.7435 21.726L11.9167 22.4715C11.1158 22.6828 10.6378 23.5036 10.8491 24.3046 10.8635 24.3589 10.8808 24.4126 10.9012 24.465L11.9595 27.1905C12.2172 27.8548 11.972 28.6086 11.373 28.9943L8.91525 30.5768C8.21858 31.025 8.01713 31.9531 8.46532 32.6498 8.49592 32.6974 8.52923 32.7432 8.565 32.787L10.4137 35.0513C10.8647 35.6034 10.8647 36.3966 10.4137 36.9487L8.565 39.213C8.04098 39.8546 8.13638 40.7996 8.77807 41.3236 8.82187 41.3594 8.8677 41.3927 8.91525 41.4232L11.373 43.0057C11.972 43.3914 12.2172 44.1453 11.9595 44.8095L10.9012 47.535C10.6012 48.3072 10.9841 49.1764 11.7563 49.4764 11.8088 49.4967 11.8623 49.5142 11.9167 49.5285L14.7435 50.274C15.4325 50.4557 15.8987 51.0971 15.8588 51.8085L15.6945 54.7275C15.6481 55.5546 16.2809 56.2628 17.108 56.3092 17.1641 56.3124 17.2202 56.3124 17.2762 56.3092L20.1952 56.145C20.9067 56.1051 21.5481 56.5712 21.7297 57.2603L22.4753 60.087C22.6866 60.888 23.5073 61.366 24.3083 61.1546 24.3627 61.1403 24.4163 61.1229 24.4688 61.1025L27.1942 60.0443C27.8584 59.7866 28.6124 60.0317 28.998 60.6308L30.5805 63.0885C31.029 63.785 31.9572 63.9861 32.6537 63.5376 32.7013 63.507 32.747 63.4738 32.7907 63.438L35.055 61.59C35.6072 61.1391 36.4003 61.1391 36.9525 61.59L39.2168 63.438C39.8583 63.9622 40.8032 63.867 41.3274 63.2255 41.3632 63.1817 41.3964 63.136 41.427 63.0885L43.0095 60.6308C43.3951 60.0317 44.149 59.7866 44.8132 60.0443L47.5387 61.1025C48.3109 61.4025 49.1801 61.0196 49.4801 60.2474 49.5005 60.195 49.5179 60.1414 49.5322 60.087L50.2778 57.2603C50.4594 56.5712 51.1008 56.1051 51.8122 56.145L54.7312 56.3092C55.5583 56.3557 56.2666 55.7228 56.313 54.8957 56.3162 54.8397 56.3162 54.7835 56.313 54.7275L56.1488 51.8085C56.1088 51.0971 56.575 50.4557 57.264 50.274L60.0908 49.5285C60.8918 49.3172 61.3697 48.4964 61.1584 47.6954 61.1441 47.6411 61.1266 47.5874 61.1062 47.535L60.048 44.8095C59.7903 44.1452 60.0355 43.3914 60.6345 43.0057L63.0923 41.4232C63.7888 40.9748 63.9899 40.0466 63.5414 39.35 63.5107 39.3025 63.4775 39.2567 63.4417 39.213ZM36.0037 55.5C25.2342 55.5 16.5037 46.7696 16.5037 36 16.5037 25.2304 25.2342 16.5 36.0037 16.5 46.7733 16.5 55.5037 25.2304 55.5037 36 55.4917 46.7646 46.7683 55.488 36.0037 55.5Z" fill="#333F50" fill-rule="nonzero" fill-opacity="1" transform="matrix(1 0 0 1.01389 576 201)"/></g></g></g></g></svg>